<?xml version="1.0" standalone="no"?>
<!DOCTYPE svg PUBLIC "-//W3C//DTD SVG 20010904//EN"
 "http://www.w3.org/TR/2001/REC-SVG-20010904/DTD/svg10.dtd">
<svg version="1.0" xmlns="http://www.w3.org/2000/svg"
 width="400.000000pt" height="400.000000pt" viewBox="0 0 400.000000 400.000000"
 preserveAspectRatio="xMidYMid meet">
<metadata>
Created by potrace 1.11, written by Peter Selinger 2001-2013
</metadata>
<g transform="translate(0.000000,400.000000) scale(0.100000,-0.100000)"
fill="#000000" stroke="none">
<path d="M1735 3984 c-55 -7 -152 -26 -215 -42 -753 -191 -1326 -786 -1480
-1537 -32 -156 -35 -188 -35 -390 0 -218 6 -285 42 -445 167 -760 750 -1345
1518 -1524 145 -34 273 -45 480 -41 99 2 191 6 205 8 14 3 43 8 65 11 333 49
700 218 970 446 219 184 392 406 514 660 142 293 203 575 197 895 -4 181 -20
308 -60 471 -25 102 -34 129 -88 264 -265 662 -912 1151 -1628 1229 -121 13
-367 10 -485 -5z m495 -38 c14 -3 43 -8 65 -10 242 -32 532 -142 767 -292 285
-182 545 -474 691 -777 134 -277 195 -528 202 -837 10 -424 -116 -824 -373
-1184 -59 -83 -270 -304 -357 -373 -245 -195 -556 -339 -860 -398 -182 -35
-487 -40 -668 -11 -642 103 -1188 512 -1467 1099 -257 542 -252 1176 13 1704
113 225 207 353 397 541 298 294 737 501 1143 538 40 3 74 8 76 10 6 6 342 -3
371 -10z"/>
<path d="M1755 3265 c-50 -25 -116 -57 -147 -70 -31 -14 -73 -36 -94 -50 -20
-14 -47 -25 -60 -25 -13 0 -24 -4 -24 -9 0 -5 -12 -12 -27 -16 -16 -3 -46 -18
-68 -33 -22 -15 -47 -31 -57 -37 -145 -89 -159 -105 -142 -162 4 -16 6 -51 5
-80 -2 -51 -2 -52 56 -107 32 -30 99 -94 150 -142 151 -143 184 -159 257 -123
46 22 112 36 103 22 -3 -5 3 -26 13 -46 11 -21 22 -64 24 -96 8 -104 61 -151
172 -151 59 0 68 3 95 30 l30 29 -2 -37 c-4 -84 82 -171 155 -157 59 12 81 27
120 81 22 30 42 54 46 54 21 0 181 177 233 258 16 24 36 46 45 49 31 12 52 45
52 83 0 42 19 87 50 115 69 64 68 64 65 114 -3 38 0 51 12 55 9 4 13 9 10 12
-3 4 0 13 8 21 17 16 20 49 6 58 -6 3 -26 -11 -46 -31 -41 -40 -51 -37 -69 18
-8 24 -23 39 -54 55 -49 24 -83 22 -125 -8 -36 -26 -59 -18 -81 31 -14 32 -24
41 -54 49 -55 14 -71 10 -102 -21 -37 -36 -48 -35 -55 6 -10 48 -56 99 -144
158 -42 28 -94 68 -116 89 -77 73 -118 75 -240 14z m206 -13 c14 -16 68 -58
120 -95 109 -76 142 -109 156 -157 12 -44 -7 -95 -39 -106 -24 -7 -140 -123
-133 -134 7 -11 -30 -48 -55 -55 -23 -6 -23 -4 8 25 19 17 32 33 30 36 -5 4
-64 -52 -93 -89 -11 -15 -25 -26 -32 -27 -6 0 -15 -4 -18 -10 -4 -6 1 -7 11
-3 14 5 15 3 5 -14 -15 -29 -87 -103 -99 -103 -6 0 -12 4 -14 9 -1 5 -25 -1
-53 -14 -27 -13 -63 -24 -80 -24 l-30 0 39 19 c50 25 96 60 164 127 30 29 61
53 69 53 11 0 18 13 11 23 -1 1 4 12 11 25 6 12 8 22 3 22 -6 0 -17 -10 -25
-22 -21 -31 -77 -91 -77 -82 0 3 -7 1 -15 -6 -8 -7 -13 -16 -10 -20 8 -13
-101 -96 -149 -113 -21 -8 -18 -4 29 53 19 23 19 24 0 10 -11 -8 -34 -30 -51
-48 -28 -28 -30 -34 -15 -42 9 -5 11 -10 6 -10 -16 0 -34 21 -29 34 2 6 -6 17
-18 25 -18 10 -20 10 -10 0 24 -26 6 -42 -20 -16 -7 7 -33 24 -58 37 -25 14
-88 66 -140 117 -52 50 -111 104 -130 120 -52 42 -57 47 -64 71 l-8 23 24 -23
c30 -29 119 -107 149 -132 13 -10 34 -28 46 -38 22 -20 22 -20 16 0 -3 14 1
22 15 26 47 15 104 -39 94 -90 -2 -13 -9 -21 -15 -17 -6 4 -7 1 -2 -6 14 -24
30 12 26 60 -3 44 -77 83 -118 61 -10 -6 -25 -7 -32 -3 -9 6 -1 15 24 30 76
44 98 50 137 34 33 -13 55 -39 44 -50 -2 -3 -14 1 -26 7 -12 6 -24 9 -27 7 -2
-3 14 -13 37 -23 41 -19 42 -19 36 -64 -3 -25 -3 -38 1 -30 3 8 17 25 30 37
12 12 23 31 23 42 0 11 4 31 9 45 7 17 6 27 -2 34 -9 8 -13 1 -15 -26 -4 -58
-8 -76 -19 -79 -6 -2 -14 6 -18 19 -4 13 -8 25 -9 28 -1 3 -5 15 -10 27 -4 12
-16 25 -28 28 -13 5 -17 10 -10 17 6 6 24 1 52 -17 23 -15 40 -21 38 -14 -7
21 -80 57 -98 49 -8 -4 -37 -13 -63 -19 -44 -10 -107 -45 -115 -63 -5 -10 -60
31 -66 49 -3 8 6 25 21 39 14 13 24 27 21 30 -3 2 -19 -8 -35 -24 l-29 -30
-40 37 c-58 51 -60 65 -16 100 52 41 188 122 242 145 25 10 56 25 70 33 14 8
50 25 80 39 30 14 96 45 145 69 115 56 114 55 155 50 22 -3 45 -15 61 -33z
m474 -272 c9 -10 20 -34 25 -53 7 -35 7 -35 -26 -35 -25 0 -39 7 -56 29 -13
16 -28 29 -35 29 -23 0 -26 23 -5 40 25 21 74 15 97 -10z m-74 -61 c16 -17 30
-36 30 -43 7 -59 6 -61 -28 -57 -6 1 -14 -3 -18 -8 -3 -6 8 -10 29 -9 19 1 41
-3 48 -9 7 -6 31 -10 53 -8 85 4 125 -37 125 -127 -1 -34 -6 -47 -25 -61 -24
-17 -24 -17 -50 27 -35 60 -49 69 -101 69 -44 0 -44 0 -29 24 16 24 15 25 -24
27 -14 1 -25 8 -26 17 -9 56 -54 129 -81 129 -21 0 -28 26 -12 44 23 27 77 20
109 -15z m301 9 c47 -18 68 -116 30 -145 -25 -20 -36 -16 -51 20 -24 54 -52
72 -106 68 -16 -2 -11 7 22 38 43 42 44 42 105 19z m-150 -40 c-11 -11 -32 -3
-32 12 0 4 9 6 21 3 13 -4 17 -9 11 -15z m-256 -13 c38 -15 73 -77 74 -126 0
-24 -4 -27 -36 -27 -23 0 -45 8 -58 20 -28 27 -75 50 -86 43 -16 -10 -21 14
-8 37 17 29 29 42 53 56 25 14 20 15 61 -3z m188 -10 c-7 -18 26 -21 44 -3 8
8 12 9 12 1 0 -18 -85 -43 -85 -25 0 4 -3 12 -7 18 -9 14 0 24 23 24 12 0 16
-5 13 -15z m160 -27 c14 -15 30 -49 28 -60 -1 -5 2 -8 7 -8 10 0 7 -52 -3 -69
-10 -16 -26 -14 -26 4 0 19 -20 56 -40 72 -8 7 -36 15 -62 19 -27 4 -48 10
-48 13 0 4 17 17 38 29 39 24 82 23 106 0z m187 -12 c-13 -16 -18 -63 -8 -86
7 -17 -19 -58 -30 -47 -3 4 0 18 7 32 7 14 10 28 7 31 -4 4 -10 -2 -14 -12
-18 -50 -79 -118 -137 -154 l-39 -24 20 30 c11 16 39 58 63 94 24 36 49 68 54
72 6 4 20 13 31 22 19 15 19 15 -4 9 -20 -5 -23 -3 -18 11 4 10 7 19 7 22 0 2
6 1 14 -2 8 -3 23 -1 33 5 24 14 28 14 14 -3z m-1432 -169 c41 -43 130 -111
171 -131 15 -7 24 -12 90 -54 l35 -22 -33 -6 c-18 -4 -35 -11 -38 -15 -10 -17
-71 -9 -100 13 -16 13 -67 59 -114 104 -47 45 -108 101 -136 125 -52 44 -88
92 -78 102 5 5 11 29 13 51 1 10 128 -101 190 -167z m748 129 c-27 -20 -20
-28 19 -20 63 12 127 -41 127 -104 0 -48 -2 -50 -43 -48 -34 2 -44 8 -70 44
-16 23 -41 44 -55 48 -25 6 -25 7 -10 30 11 17 12 24 3 24 -6 0 -1 11 12 25
13 14 26 22 29 19 3 -3 -2 -11 -12 -18z m206 -83 c-19 -7 -16 -33 4 -33 20 0
4 -20 -18 -23 -8 -2 -19 -5 -24 -9 -7 -4 -10 7 -9 30 2 46 -1 42 32 41 15 0
21 -3 15 -6z m42 -4 c11 -16 1 -19 -13 -3 -7 8 -8 14 -3 14 5 0 13 -5 16 -11z
m-239 -31 c28 -28 53 -104 44 -138 -5 -21 -11 -25 -38 -22 -17 2 -40 -1 -50
-7 -16 -8 -25 -4 -52 24 -19 20 -48 37 -67 41 -18 3 -33 11 -33 17 0 22 55 95
79 104 41 15 91 7 117 -19z m390 -40 c44 -69 29 -168 -24 -168 -9 0 -13 3 -9
6 9 10 -13 60 -37 83 -16 15 -39 23 -75 26 -29 2 -55 5 -57 8 -6 6 14 44 35
67 22 24 82 38 114 27 16 -5 39 -27 53 -49z m-291 -48 c-4 -13 1 -20 21 -27
l28 -9 -38 -23 c-20 -13 -40 -20 -43 -17 -14 14 -10 87 6 96 21 11 33 2 26
-20z m75 -10 c0 -5 -4 -12 -10 -15 -5 -3 -10 -4 -10 -1 0 2 -3 12 -6 20 -5 12
-2 15 10 10 9 -3 16 -10 16 -14z m345 -17 c-13 -21 -33 -49 -44 -63 -66 -83
-81 -103 -81 -109 0 -6 41 39 93 100 43 52 32 10 -13 -50 -22 -30 -45 -61 -51
-70 -7 -12 -12 -13 -15 -3 -8 18 -19 15 -64 -15 -39 -28 -51 -63 -22 -69 7 -1
8 0 2 3 -19 9 -9 28 30 55 26 18 40 23 43 15 10 -27 -54 -103 -76 -91 -6 4 -9
4 -5 -1 9 -10 -9 -45 -24 -45 -6 0 -5 7 3 18 13 16 13 16 -7 0 -29 -25 -35
-22 -24 10 20 55 35 78 82 126 26 27 46 52 43 56 -3 4 2 13 10 20 8 6 19 27
25 46 12 34 83 104 106 104 9 0 5 -13 -11 -37z m-204 -20 c10 -10 23 -43 29
-72 9 -49 8 -58 -12 -87 -38 -55 -52 -58 -72 -13 -24 54 -81 92 -138 91 -22
-1 -22 2 -1 36 24 37 63 70 88 74 33 6 87 -9 106 -29z m222 6 c-8 -16 -17 -28
-20 -25 -6 5 23 56 31 56 3 0 -2 -14 -11 -31z m-648 -13 c9 -9 27 -39 41 -68
20 -43 23 -47 18 -20 -7 41 8 60 44 56 41 -5 82 -22 82 -34 0 -5 0 -13 0 -17
0 -4 -7 -8 -17 -11 -27 -5 -57 -10 -69 -11 -7 -1 -14 -10 -17 -22 -4 -14 -10
-18 -19 -13 -11 6 -11 5 0 -8 8 -10 9 -19 3 -22 -5 -3 -12 0 -14 6 -4 8 -6 7
-6 -3 -1 -9 -7 -17 -13 -16 -37 1 -58 -4 -53 -13 4 -6 12 -7 23 -1 20 12 60
-6 67 -31 4 -10 16 -23 28 -29 12 -7 26 -18 30 -26 4 -7 25 -22 45 -32 34 -17
56 -24 117 -35 11 -2 38 2 60 10 50 17 56 11 14 -15 -38 -23 -64 -26 -106 -11
-26 9 -27 9 -9 -5 11 -8 30 -15 43 -15 13 0 23 -3 23 -7 -1 -19 -77 -94 -100
-99 -14 -3 -32 -6 -40 -8 -8 -2 -30 4 -48 12 -30 15 -32 19 -27 51 4 34 4 35
-9 12 -12 -22 -13 -22 -21 -5 -4 11 -9 43 -11 72 -3 51 7 66 32 43 8 -8 118
-51 129 -51 3 0 5 5 5 10 0 6 -3 9 -7 8 -10 -3 -56 15 -153 59 -41 19 -82 36
-90 38 -8 2 -49 17 -92 34 -42 17 -80 31 -85 31 -20 0 -73 63 -73 87 0 25 66
100 78 88 4 -3 -1 -11 -10 -16 -9 -5 -26 -25 -38 -43 -18 -30 -19 -38 -8 -56
7 -11 22 -23 32 -26 11 -4 35 -13 55 -22 58 -25 131 -38 131 -23 0 5 -10 8
-22 7 -28 -2 -148 40 -165 57 -9 9 -8 21 6 52 44 97 158 139 216 81z m651 -38
c-9 -12 -16 -17 -16 -10 0 18 24 54 28 42 2 -5 -4 -20 -12 -32z m-926 -8 c0
-5 -10 -10 -22 -10 -19 0 -20 2 -8 10 19 13 30 13 30 0z m597 -72 c35 -33 56
-86 50 -130 -7 -56 -32 -88 -65 -88 -44 0 -126 28 -153 51 -13 12 -35 29 -47
40 -22 16 -23 22 -13 52 30 89 165 133 228 75z m-515 -82 c27 -12 122 -48 213
-80 19 -7 19 -8 3 -17 -10 -6 -18 -16 -18 -23 0 -38 -104 -56 -169 -30 -34 13
-37 18 -40 57 -3 51 -11 63 -11 17 0 -21 -4 -30 -9 -24 -12 11 -20 114 -9 114
4 0 22 -7 40 -14z"/>
<path d="M1773 3127 c-17 -11 -20 -16 -8 -12 11 4 36 11 55 14 34 7 34 7 8 13
-18 3 -37 -2 -55 -15z"/>
<path d="M1637 3133 c-13 -13 -7 -63 7 -63 21 0 29 17 11 24 -9 3 -12 12 -8
21 5 13 7 14 14 3 7 -10 9 -9 9 5 0 17 -20 23 -33 10z"/>
<path d="M1862 3120 c1 -19 -3 -30 -10 -26 -4 2 -14 1 -22 -5 -11 -6 -9 -9 11
-9 15 0 29 7 33 16 3 8 10 12 16 9 5 -3 10 -2 10 4 0 16 63 3 83 -17 10 -11
20 -35 21 -54 3 -38 12 -58 28 -58 7 0 7 4 0 13 -5 6 -13 30 -16 52 -9 53 -54
86 -113 82 -23 -1 -41 -4 -41 -7z"/>
<path d="M1851 3061 c-7 -5 -21 -7 -30 -4 -9 2 -25 -3 -36 -12 l-20 -17 20 8
c37 13 115 -2 115 -22 0 -8 5 -14 11 -14 7 0 6 8 -4 23 -8 12 -22 21 -31 21
-23 -2 -20 5 7 16 20 8 20 9 2 9 -11 0 -26 -3 -34 -8z"/>
<path d="M1926 3061 c-3 -4 3 -19 14 -31 19 -22 21 -55 5 -80 -7 -11 -29 -14
-22 -2 3 4 1 16 -4 27 -7 16 -8 14 -5 -9 3 -36 18 -43 40 -20 21 20 19 101 -2
96 -8 -1 -11 2 -8 7 4 5 2 12 -3 15 -5 4 -12 2 -15 -3z"/>
<path d="M1618 3033 c-5 -12 -64 -43 -81 -43 -8 0 -25 -9 -38 -20 -25 -20 -21
-26 9 -11 89 43 115 58 124 69 7 8 7 12 0 12 -6 0 -12 -3 -14 -7z"/>
<path d="M1843 2993 c35 -37 36 -65 1 -30 -41 41 -73 43 -148 7 -37 -18 -69
-36 -72 -41 -6 -11 21 -1 65 24 21 11 48 17 67 15 26 -3 31 -1 22 9 -8 10 -4
11 21 2 17 -6 42 -24 56 -41 l25 -30 0 34 c-1 37 -15 61 -45 72 -16 6 -15 2 8
-21z"/>
<path d="M1402 2991 c-6 -4 -14 -23 -17 -41 l-5 -35 10 33 c12 38 22 43 16 7
-5 -29 9 -25 17 4 6 24 -5 42 -21 32z"/>
<path d="M2195 2960 c-9 -15 -95 -72 -112 -74 -9 -2 -18 -11 -19 -21 -3 -18
-84 -108 -92 -101 -4 4 37 54 72 87 13 12 15 19 7 19 -20 0 -102 -93 -96 -109
3 -7 0 -20 -6 -27 -6 -8 -8 -14 -4 -14 4 0 45 37 90 83 45 45 104 101 131 124
27 23 46 42 42 42 -4 1 -10 -3 -13 -9z"/>
<path d="M1817 2908 c18 -53 17 -52 34 -31 9 10 9 14 2 10 -8 -5 -18 4 -27 28
-21 49 -27 44 -9 -7z"/>
<path d="M1671 2926 c-7 -8 -27 -18 -44 -22 -18 -3 -37 -10 -43 -15 -6 -5 -20
-10 -32 -12 -12 -2 -24 -6 -28 -10 -8 -8 37 0 71 13 14 5 38 7 54 4 26 -5 32
-14 47 -63 21 -68 20 -67 37 -50 31 31 48 121 25 135 -7 4 -8 3 -4 -5 9 -14
-12 -111 -24 -111 -8 0 -21 29 -26 60 -2 8 -11 22 -21 30 -18 14 -18 16 -1 33
15 14 23 15 41 7 21 -11 21 -11 3 4 -25 20 -40 20 -55 2z"/>
<path d="M1690 2902 c0 -4 14 -16 30 -25 36 -22 41 -6 5 17 -27 18 -35 20 -35
8z"/>
<path d="M1349 2873 c-13 -16 -12 -17 4 -4 9 7 17 15 17 17 0 8 -8 3 -21 -13z"/>
<path d="M1864 2829 c-16 -17 -49 -41 -74 -54 -25 -13 -63 -43 -85 -66 l-40
-43 51 42 c29 23 56 42 62 42 5 0 37 25 71 55 34 30 58 55 53 55 -4 0 -21 -14
-38 -31z"/>
<path d="M1580 2840 c8 -5 20 -10 25 -10 6 0 3 5 -5 10 -8 5 -19 10 -25 10 -5
0 -3 -5 5 -10z"/>
<path d="M1416 2667 c3 -10 9 -15 12 -12 3 3 0 11 -7 18 -10 9 -11 8 -5 -6z"/>
<path d="M1440 2646 c0 -2 8 -10 18 -17 15 -13 16 -12 3 4 -13 16 -21 21 -21
13z"/>
<path d="M1625 2640 c-3 -5 -1 -10 4 -10 6 0 11 5 11 10 0 6 -2 10 -4 10 -3 0
-8 -4 -11 -10z"/>
<path d="M1568 2598 c-23 -18 -30 -19 -45 -8 -10 8 -7 2 7 -12 14 -14 27 -20
29 -14 2 6 15 21 28 34 30 28 17 28 -19 0z"/>
<path d="M2370 2780 c0 -5 6 -10 14 -10 8 0 16 -6 19 -12 3 -10 7 -10 17 -1 7
6 9 16 6 22 -9 14 -56 15 -56 1z"/>
<path d="M2119 2469 c-12 -8 -11 -11 1 -19 18 -12 42 -9 47 6 5 15 -31 24 -48
13z"/>
<path d="M657 1270 c-10 -4 -13 -41 -13 -145 l1 -140 102 -3 c97 -3 102 -2
100 18 -1 18 -8 20 -82 20 l-80 0 0 43 0 42 67 3 c56 2 67 6 71 22 5 18 0 20
-64 20 -38 0 -70 3 -70 8 -1 4 -2 16 -2 27 -1 51 -1 50 78 49 70 -1 75 0 75
20 0 20 -5 21 -85 21 -47 0 -91 -2 -98 -5z"/>
<path d="M2250 1224 c0 -55 0 -55 -22 -40 -86 61 -185 -53 -134 -153 28 -52
78 -65 149 -36 10 4 17 3 17 -4 0 -6 10 -11 21 -11 17 0 20 4 15 23 -3 12 -6
79 -6 150 0 120 -1 127 -20 127 -18 0 -20 -7 -20 -56z m-17 -82 c17 -15 24
-77 9 -98 -25 -39 -90 -36 -111 5 -24 45 -2 106 42 113 25 5 35 1 60 -20z"/>
<path d="M2450 1272 c-6 -2 -10 -61 -10 -148 0 -143 0 -144 23 -144 21 0 23 3
21 65 l-2 65 69 0 c38 0 69 3 69 8 -1 21 -20 30 -60 30 -79 -1 -78 -2 -78 42
0 22 2 40 6 41 4 0 38 2 77 2 58 2 70 5 73 20 2 9 -2 17 -10 18 -42 3 -170 3
-178 1z"/>
<path d="M2670 1141 c0 -152 5 -165 57 -159 17 2 29 10 31 21 3 14 -2 18 -20
15 -23 -3 -23 -3 -26 130 -2 124 -4 132 -22 132 -19 0 -20 -7 -20 -139z"/>
<path d="M897 1178 c-50 -46 -53 -119 -7 -168 22 -24 36 -30 68 -30 23 0 44 5
47 10 7 12 25 4 25 -11 0 -5 -9 -18 -20 -29 -24 -24 -82 -27 -105 -4 -9 9 -23
13 -32 10 -15 -6 -14 -10 8 -32 52 -52 156 -36 178 28 6 17 11 80 11 139 0
102 -1 109 -20 109 -11 0 -20 -7 -20 -16 0 -14 -2 -14 -22 0 -33 23 -83 20
-111 -6z m113 -33 c7 -9 15 -31 17 -50 3 -28 -2 -41 -21 -60 -30 -30 -45 -31
-80 -4 -30 24 -35 72 -10 107 18 26 75 30 94 7z"/>
<path d="M1154 1189 c-68 -35 -71 -144 -4 -196 19 -15 75 -17 101 -3 16 9 19
7 19 -8 0 -48 -76 -69 -122 -32 -26 20 -38 18 -38 -6 0 -17 40 -44 75 -50 38
-7 91 13 109 41 23 35 23 265 1 265 -9 0 -18 -7 -22 -16 -4 -11 -8 -12 -13 -4
-10 16 -80 22 -106 9z m99 -47 c21 -19 23 -85 2 -106 -54 -54 -131 0 -111 80
4 16 19 30 39 39 33 14 40 12 70 -13z"/>
<path d="M1370 1180 c-20 -20 -26 -56 -12 -76 4 -6 31 -19 59 -28 59 -20 70
-30 53 -51 -16 -19 -53 -19 -90 0 -25 13 -29 13 -34 -2 -8 -19 -8 -19 35 -36
47 -18 97 -8 122 25 32 42 13 73 -58 93 -42 13 -55 21 -55 36 0 26 42 35 79
16 26 -13 30 -13 36 1 6 17 7 16 -22 31 -35 18 -90 14 -113 -9z"/>
<path d="M1673 1188 c-22 -11 -29 -28 -17 -40 3 -4 17 0 32 8 36 19 48 18 72
-6 31 -31 24 -39 -30 -37 -39 1 -55 -4 -75 -23 -28 -26 -30 -38 -14 -74 17
-35 56 -47 105 -30 24 8 40 10 42 4 2 -6 12 -10 21 -10 16 0 18 8 14 73 -6 84
-25 133 -56 141 -32 8 -69 6 -94 -6z m107 -129 c0 -22 -36 -49 -66 -49 -26 0
-48 24 -40 45 13 35 106 39 106 4z"/>
<path d="M1860 1090 c0 -103 1 -110 20 -110 22 0 22 2 22 75 0 72 20 105 65
105 32 0 43 -29 43 -109 0 -65 2 -71 21 -71 19 0 20 5 18 83 -2 80 -10 114
-33 129 -19 13 -71 9 -94 -8 -20 -14 -22 -14 -22 0 0 9 -9 16 -20 16 -19 0
-20 -7 -20 -110z"/>
<path d="M2807 1179 c-15 -11 -32 -38 -38 -59 -30 -98 73 -179 158 -124 65 41
65 143 1 188 -32 22 -90 20 -121 -5z m120 -52 c15 -33 7 -79 -18 -98 -58 -44
-127 21 -98 92 20 51 94 55 116 6z"/>
<path d="M3009 1188 c-3 -38 0 -144 5 -164 9 -33 53 -53 93 -42 18 4 35 13 38
19 4 6 12 4 20 -7 16 -23 50 -11 40 14 -4 9 -8 55 -9 102 -1 72 -4 85 -18 88
-10 2 -18 -2 -19 -10 0 -7 -2 -40 -4 -73 -1 -33 -3 -63 -4 -67 -1 -7 -54 -38
-65 -38 -2 0 -12 7 -20 16 -12 11 -16 36 -16 95 0 72 -2 79 -20 79 -11 0 -20
-6 -21 -12z"/>
<path d="M3249 1198 c-1 -2 -3 -51 -4 -110 -1 -98 0 -108 17 -108 20 0 19 -2
20 78 1 62 24 102 60 102 22 0 24 28 3 36 -8 4 -26 -1 -40 -10 -22 -14 -25
-15 -25 -1 0 12 -26 22 -31 13z"/>
</g>
</svg>
